name D:\school\WTK\thesis\model\3dpredictsim\Results\Batchsim_tmt_linear_v2\Pog_s1_tmt_bCst_d00_k800_ig24_pas.mot
datacolumns 128
datarows 4
range 1.63831970 1.67108609
endheader
time	pelvis_tilt	pelvis_list	pelvis_rotation	pelvis_tx	pelvis_ty	pelvis_tz	hip_flexion_l	hip_adduction_l	hip_rotation_l	hip_flexion_r	hip_adduction_r	hip_rotation_r	knee_angle_l	knee_angle_r	ankle_angle_l	ankle_angle_r	subtalar_angle_l	subtalar_angle_r	tmt_angle_l	tmt_angle_r	mtp_angle_l	mtp_angle_r	lumbar_extension	lumbar_bending	lumbar_rotation	arm_flex_l	arm_add_l	arm_rot_l	arm_flex_r	arm_add_r	arm_rot_r	elbow_flex_l	elbow_flex_r	pro_sup_l	pro_sup_r	glut_med1_l/activation	glut_med2_l/activation	glut_med3_l/activation	glut_min1_l/activation	glut_min2_l/activation	glut_min3_l/activation	semimem_l/activation	semiten_l/activation	bifemlh_l/activation	bifemsh_l/activation	sar_l/activation	add_long_l/activation	add_brev_l/activation	add_mag1_l/activation	add_mag2_l/activation	add_mag3_l/activation	tfl_l/activation	pect_l/activation	grac_l/activation	glut_max1_l/activation	glut_max2_l/activation	glut_max3_l/activation	iliacus_l/activation	psoas_l/activation	quad_fem_l/activation	gem_l/activation	peri_l/activation	rect_fem_l/activation	vas_med_l/activation	vas_int_l/activation	vas_lat_l/activation	med_gas_l/activation	lat_gas_l/activation	soleus_l/activation	tib_post_l/activation	flex_dig_l/activation	flex_hal_l/activation	tib_ant_l/activation	per_brev_l/activation	per_long_l/activation	per_tert_l/activation	ext_dig_l/activation	ext_hal_l/activation	ercspn_l/activation	intobl_l/activation	extobl_l/activation	glut_med1_r/activation	glut_med2_r/activation	glut_med3_r/activation	glut_min1_r/activation	glut_min2_r/activation	glut_min3_r/activation	semimem_r/activation	semiten_r/activation	bifemlh_r/activation	bifemsh_r/activation	sar_r/activation	add_long_r/activation	add_brev_r/activation	add_mag1_r/activation	add_mag2_r/activation	add_mag3_r/activation	tfl_r/activation	pect_r/activation	grac_r/activation	glut_max1_r/activation	glut_max2_r/activation	glut_max3_r/activation	iliacus_r/activation	psoas_r/activation	quad_fem_r/activation	gem_r/activation	peri_r/activation	rect_fem_r/activation	vas_med_r/activation	vas_int_r/activation	vas_lat_r/activation	med_gas_r/activation	lat_gas_r/activation	soleus_r/activation	tib_post_r/activation	flex_dig_r/activation	flex_hal_r/activation	tib_ant_r/activation	per_brev_r/activation	per_long_r/activation	per_tert_r/activation	ext_dig_r/activation	ext_hal_r/activation	ercspn_r/activation	intobl_r/activation	extobl_r/activation	
          1.63831970	         -2.90037610	         -1.05090422	         -5.16996582	          2.04789963	          0.87137754	          0.00279513	         26.57883485	         -0.30283434	         -1.73871160	        -17.55307611	          1.32040551	          7.42543858	         -8.34446979	         -8.19201645	          5.47912275	        -10.93825455	          3.08479614	          9.06650075	          0.04045997	          1.24682346	         -0.08949870	         28.66617609	          0.48742541	          2.90478001	          1.63071755	         -9.87076974	        -13.48497916	         13.34831915	          3.75909927	        -13.50879751	         13.53270816	         16.73364644	         29.00094339	         86.51662706	         86.51662706	          0.13033091	          0.05000159	          0.14740304	          0.05000105	          0.05000140	          0.05000631	          0.05910185	          0.05910178	          0.05911059	          0.05000069	          0.05000566	          0.08116376	          0.11539592	          0.10520348	          0.19159279	          0.16310299	          0.05000069	          0.05003603	          0.05002413	          0.05011126	          0.14879971	          0.16944371	          0.05000060	          0.05000041	          0.14346717	          0.05000374	          0.05000333	          0.05000241	          0.14450682	          0.16372041	          0.11399508	          0.05910165	          0.05906175	          0.05910176	          0.05000016	          0.05910129	          0.05910163	          0.55207646	          0.32925357	          0.18533446	          0.38153884	          0.53772358	          0.32769925	          0.05000004	          0.11537844	          0.11690287	          0.26085672	          0.08379770	          0.05315467	          0.22236447	          0.14544586	          0.08261366	          0.05000153	          0.05000023	          0.05000022	          0.05000026	          0.07657117	          0.14177555	          0.09760019	          0.05351374	          0.05000489	          0.05000064	          0.20232355	          0.10770118	          0.05001467	          0.05000350	          0.05000190	          0.05000163	          0.28356468	          0.55039138	          0.05536105	          0.05000256	          0.05000056	          0.21623226	          0.13637953	          0.13638066	          0.06757125	          0.16009522	          0.23823685	          0.19091646	          0.18326226	          0.18747877	          0.23689181	          0.05000002	          0.09228007	          0.15839638	          0.05000013	          0.05000004	          0.05000014	          0.05000004	          0.05000214	          0.05000807	
          1.64924183	         -2.87506103	         -1.07448962	         -5.29908894	          2.06538212	          0.86988993	          0.00261971	         26.00971335	         -0.09496760	         -1.50747803	        -17.18601107	          1.18020118	          7.16639420	         -8.42587332	        -10.65882273	          4.84571838	        -11.65765001	          2.58929279	         10.30716785	          0.06302759	          1.06746295	         -0.08206890	         29.02560337	          0.73086973	          2.67964076	          1.68576517	        -11.12021316	        -13.49653326	         13.17192554	          3.42313515	        -13.55579151	         13.80617503	         16.78424727	         29.96362567	         86.51662706	         86.51662706	          0.11025993	          0.05071377	          0.18678201	          0.05000068	          0.05000076	          0.05000050	          0.05000010	          0.05000016	          0.05000749	          0.05000006	          0.05000017	          0.08257640	          0.09763261	          0.27003866	          0.27077661	          0.17037578	          0.05000059	          0.05000246	          0.05000062	          0.05910283	          0.17953824	          0.20178577	          0.05000006	          0.05000011	          0.22522991	          0.05912778	          0.06326495	          0.06986053	          0.31294921	          0.33194372	          0.25739249	          0.05000000	          0.05000001	          0.05000000	          0.05000006	          0.05000037	          0.05000021	          0.66096450	          0.32532411	          0.18423464	          0.64211836	          0.58997152	          0.36722274	          0.05000002	          0.09760997	          0.09889963	          0.22068438	          0.07089274	          0.05000144	          0.18812005	          0.12304700	          0.06989108	          0.05000219	          0.05000017	          0.05000022	          0.05000010	          0.06477923	          0.20050455	          0.26656511	          0.20672616	          0.05008615	          0.10922813	          0.17116545	          0.09111687	          0.05000051	          0.05000868	          0.05000826	          0.05002155	          0.23989526	          0.46563050	          0.05913631	          0.05910961	          0.05910176	          0.18293213	          0.11537821	          0.11537874	          0.11537785	          0.13544028	          0.20154798	          0.16151500	          0.15503960	          0.15860689	          0.20041016	          0.05000008	          0.07806890	          0.13400326	          0.05000015	          0.10905584	          0.05000045	          0.06034969	          0.07253191	          0.06766969	
          1.66016396	         -2.84386519	         -1.07920623	         -5.40344131	          2.08298971	          0.86814682	          0.00245891	         25.33390526	          0.08302124	         -1.22434582	        -16.72046844	          1.04052585	          6.89852356	         -9.07880101	        -13.31343645	          4.15785103	        -12.21159875	          2.07079933	         11.48595584	         -0.05523977	          0.82565156	         -0.14106836	         28.67018134	          0.97931794	          2.42432740	          1.73037370	        -12.34455576	        -13.52208112	         13.08029088	          3.04256224	        -13.61045723	         14.03967378	         16.80083132	         30.92251754	         86.51662706	         86.51662706	          0.29223299	          0.24339789	          0.33060062	          0.05000406	          0.05000133	          0.15218477	          0.07538651	          0.09295631	          0.08021170	          0.05000040	          0.05001257	          0.06986039	          0.08259716	          0.22845236	          0.22907702	          0.18315399	          0.05000038	          0.06985384	          0.05533543	          0.05000103	          0.18575667	          0.18291028	          0.05122880	          0.05000078	          0.19054418	          0.05002232	          0.15137592	          0.05910190	          0.26475454	          0.28082387	          0.21775364	          0.05910179	          0.05910181	          0.05910177	          0.05000005	          0.05910155	          0.05910149	          0.55917486	          0.34570179	          0.17280381	          0.54323118	          0.60065648	          0.31066992	          0.05000004	          0.08257787	          0.08366892	          0.18786729	          0.05997517	          0.05000018	          0.15914936	          0.10409761	          0.05912779	          0.05000421	          0.05000088	          0.05000232	          0.05000012	          0.05480334	          0.18724014	          0.43233147	          0.17489123	          0.05917822	          0.09240758	          0.14480577	          0.08261924	          0.05910201	          0.05000501	          0.05000714	          0.05910123	          0.20295100	          0.40824087	          0.05910171	          0.05000729	          0.05000022	          0.15476027	          0.09760981	          0.09761025	          0.09760950	          0.11458225	          0.17050927	          0.13664142	          0.13116327	          0.13418131	          0.16954674	          0.08662605	          0.11780028	          0.11510853	          0.05828847	          0.21271447	          0.11856961	          0.07186764	          0.06136188	          0.05910167	
          1.67108609	         -2.81010651	         -1.07005140	         -5.48032807	          2.10049368	          0.86619888	          0.00229406	         24.54859904	          0.25662260	         -0.91628180	        -16.15129494	          0.90637101	          6.62899110	         -9.77888587	        -16.12522502	          3.72154553	        -12.49495075	          1.50673266	         12.56807925	         -0.01858204	          0.56105387	         -0.16084056	         27.27572075	          1.21358516	          2.14837494	          1.76549023	        -13.49405745	        -13.55736461	         13.08620000	          2.65916084	        -13.67229262	         14.25313431	         16.75433221	         31.84801436	         86.51662706	         86.51662706	          0.35488267	          0.40479885	          0.51722388	          0.23981935	          0.24376999	          0.39635754	          0.06377695	          0.07864977	          0.06785962	          0.06271767	          0.05000062	          0.05910185	          0.06987710	          0.19327041	          0.19379933	          0.18507430	          0.05000033	          0.05909702	          0.06985963	          0.26843436	          0.24098507	          0.20543130	          0.05000016	          0.05000015	          0.16120013	          0.05000117	          0.27139798	          0.05000013	          0.22398202	          0.23757680	          0.18421931	          0.05000004	          0.05000008	          0.05000001	          0.05000002	          0.05000013	          0.05000010	          0.74072060	          0.29246315	          0.14619174	          0.68529880	          0.63987013	          0.49232996	          0.05933334	          0.06986075	          0.07078377	          0.15893577	          0.05073895	          0.05000008	          0.18682860	          0.08806651	          0.05002214	          0.05000603	          0.05000023	          0.05000024	          0.05000027	          0.05910229	          0.15840531	          0.36575176	          0.14795783	          0.05006506	          0.07817687	          0.12250558	          0.06989601	          0.05000094	          0.05000137	          0.05000077	          0.05000059	          0.17169623	          0.36131257	          0.05000013	          0.05000041	          0.05000016	          0.13092693	          0.08257777	          0.08257814	          0.08257750	          0.09693640	          0.14425057	          0.11559841	          0.11096396	          0.11351734	          0.14343636	          0.10713262	          0.09965939	          0.09738172	          0.16199774	          0.26801306	          0.17757285	          0.10712162	          0.05191205	          0.05000004	
